<mxfile host="app.diagrams.net" modified="2023-04-19T03:19:08.454Z" agent="Mozilla/5.0 (Windows NT 10.0; Win64; x64) AppleWebKit/537.36 (KHTML, like Gecko) Chrome/109.0.0.0 Safari/537.36" version="21.1.9" etag="fokyAkYcp-1bQ8Rkl5JK" type="github">
  <diagram name="Page-1" id="8IkHWMkO5VM_6o-3ePtb">
    <mxGraphModel>
      <root>
        <mxCell id="0" />
        <mxCell id="1" parent="0" />
      </root>
    </mxGraphModel>
  </diagram>
</mxfile>
